<svg xmlns="http://www.w3.org/2000/svg" version="1.1" xmlns:xlink="http://www.w3.org/1999/xlink" xmlns:svgjs="http://svgjs.dev/svgjs" width="2000" height="1247" viewBox="0 0 2000 1247"><g transform="matrix(1,0,0,1,-1.2121212121212466,248.04493837156986)"><svg viewBox="0 0 396 247" data-background-color="#0c1d36" preserveAspectRatio="xMidYMid meet" height="1247" width="2000" xmlns="http://www.w3.org/2000/svg" xmlns:xlink="http://www.w3.org/1999/xlink"><g id="tight-bounds" transform="matrix(1,0,0,1,0.2400000000000091,-0.09999999999999432)"><svg viewBox="0 0 395.52 247.2" height="247.2" width="395.52"><g><svg></svg></g><g><svg viewBox="0 0 395.52 247.2" height="247.2" width="395.52"><g transform="matrix(1,0,0,1,75.54432,48.95291923809067)"><svg viewBox="0 0 244.43135999999998 149.29416152381864" height="149.29416152381864" width="244.43135999999998"><g><svg viewBox="0 0 245.65351679999995 150.0406323314377" height="149.29416152381864" width="244.43135999999998"><g><rect width="245.65351679999995" height="2.7177184300065433" x="0" y="84.33356363634397" fill="#000000" opacity="1" stroke-width="0" stroke="transparent" fill-opacity="1" class="rect-qz-0" data-fill-palette-color="secondary" rx="1%" id="qz-0" data-palette-color="#f9cc0b"></rect></g><g transform="matrix(1,0,0,1,0.6110783999999825,94.1657282182001)"><svg viewBox="0 0 244.43135999999998 55.874904113237605" height="55.874904113237605" width="244.43135999999998"><g id="textblocktransform"><svg viewBox="0 0 244.43135999999998 55.874904113237605" height="55.874904113237605" width="244.43135999999998" id="textblock"><g><svg viewBox="0 0 244.43135999999998 30.136253375394322" height="30.136253375394322" width="244.43135999999998"><g transform="matrix(1,0,0,1,0,0)"><svg width="244.43135999999998" viewBox="3.7 -35.9 380.36 46.9" height="30.136253375394322" data-palette-color="#f9cc0b"><path d="M7.25 0L4.85 0Q4.35 0 4.03-0.33 3.7-0.65 3.7-1.15L3.7-1.15 3.7-24.85Q3.7-25.35 4.03-25.68 4.35-26 4.85-26L4.85-26 7.1-26Q7.6-26 7.93-25.68 8.25-25.35 8.25-24.85L8.25-24.85 8.25-23.1Q9.4-24.65 11.15-25.58 12.9-26.5 15.35-26.5L15.35-26.5Q21-26.55 23.35-21.9L23.35-21.9Q24.5-24 26.7-25.25 28.9-26.5 31.7-26.5L31.7-26.5Q34.3-26.5 36.43-25.3 38.55-24.1 39.78-21.68 41-19.25 41-15.6L41-15.6 41-1.15Q41-0.65 40.68-0.33 40.35 0 39.85 0L39.85 0 37.5 0Q37 0 36.68-0.33 36.35-0.65 36.35-1.15L36.35-1.15 36.35-15.15Q36.35-17.95 35.55-19.55 34.75-21.15 33.4-21.8 32.05-22.45 30.45-22.45L30.45-22.45Q29.15-22.45 27.8-21.8 26.45-21.15 25.58-19.55 24.7-17.95 24.7-15.15L24.7-15.15 24.7-1.15Q24.7-0.65 24.38-0.33 24.05 0 23.55 0L23.55 0 21.2 0Q20.7 0 20.38-0.33 20.05-0.65 20.05-1.15L20.05-1.15 20.05-15.15Q20.05-17.95 19.2-19.55 18.35-21.15 17-21.8 15.65-22.45 14.15-22.45L14.15-22.45Q12.85-22.45 11.5-21.8 10.15-21.15 9.28-19.55 8.4-17.95 8.4-15.2L8.4-15.2 8.4-1.15Q8.4-0.65 8.08-0.33 7.75 0 7.25 0L7.25 0ZM55.4 0.5L55.4 0.5Q52.9 0.5 50.85-0.5 48.8-1.5 47.55-3.2 46.3-4.9 46.3-7.05L46.3-7.05Q46.3-10.5 49.1-12.55 51.9-14.6 56.4-15.25L56.4-15.25 63.85-16.3 63.85-17.75Q63.85-20.15 62.47-21.5 61.1-22.85 58-22.85L58-22.85Q55.8-22.85 54.4-21.95 53-21.05 52.45-19.65L52.45-19.65Q52.15-18.9 51.4-18.9L51.4-18.9 49.15-18.9Q48.6-18.9 48.32-19.23 48.05-19.55 48.05-20L48.05-20Q48.05-20.75 48.62-21.85 49.2-22.95 50.4-24 51.6-25.05 53.47-25.78 55.35-26.5 58.05-26.5L58.05-26.5Q61.05-26.5 63.1-25.73 65.15-24.95 66.32-23.65 67.5-22.35 68.02-20.7 68.55-19.05 68.55-17.35L68.55-17.35 68.55-1.15Q68.55-0.65 68.22-0.33 67.9 0 67.4 0L67.4 0 65.1 0Q64.55 0 64.25-0.33 63.95-0.65 63.95-1.15L63.95-1.15 63.95-3.3Q63.3-2.4 62.2-1.53 61.1-0.65 59.45-0.08 57.8 0.5 55.4 0.5ZM56.45-3.25L56.45-3.25Q58.5-3.25 60.2-4.13 61.9-5 62.87-6.85 63.85-8.7 63.85-11.5L63.85-11.5 63.85-12.9 58.05-12.05Q54.5-11.55 52.7-10.38 50.9-9.2 50.9-7.4L50.9-7.4Q50.9-6 51.72-5.08 52.55-4.15 53.82-3.7 55.1-3.25 56.45-3.25ZM86.4 11L86.4 11Q83 11 80.82 10.1 78.65 9.2 77.42 7.93 76.2 6.65 75.67 5.38 75.15 4.1 75.1 3.35L75.1 3.35Q75.05 2.85 75.42 2.5 75.8 2.15 76.25 2.15L76.25 2.15 78.65 2.15Q79.1 2.15 79.4 2.35 79.7 2.55 79.9 3.2L79.9 3.2Q80.2 3.95 80.8 4.88 81.4 5.8 82.65 6.48 83.9 7.15 86.15 7.15L86.15 7.15Q88.5 7.15 90.1 6.5 91.7 5.85 92.52 4.3 93.35 2.75 93.35 0L93.35 0 93.35-3.4Q92.15-1.85 90.2-0.83 88.25 0.2 85.3 0.2L85.3 0.2Q82.5 0.2 80.5-0.78 78.5-1.75 77.22-3.43 75.95-5.1 75.32-7.25 74.7-9.4 74.6-11.75L74.6-11.75Q74.55-13.15 74.6-14.5L74.6-14.5Q74.7-16.85 75.32-19 75.95-21.15 77.22-22.85 78.5-24.55 80.5-25.53 82.5-26.5 85.3-26.5L85.3-26.5Q88.3-26.5 90.27-25.4 92.25-24.3 93.5-22.65L93.5-22.65 93.5-24.8Q93.5-25.3 93.82-25.65 94.15-26 94.65-26L94.65-26 96.95-26Q97.45-26 97.8-25.65 98.15-25.3 98.15-24.8L98.15-24.8 98.15-0.55Q98.15 2.8 97.02 5.4 95.9 8 93.32 9.5 90.75 11 86.4 11ZM86.3-3.8L86.3-3.8Q88.8-3.8 90.32-4.95 91.85-6.1 92.57-7.85 93.3-9.6 93.35-11.4L93.35-11.4Q93.4-12.1 93.4-13.13 93.4-14.15 93.35-14.85L93.35-14.85Q93.3-16.65 92.57-18.4 91.85-20.15 90.32-21.3 88.8-22.45 86.3-22.45L86.3-22.45Q83.8-22.45 82.3-21.33 80.8-20.2 80.15-18.38 79.5-16.55 79.4-14.45L79.4-14.45Q79.35-13.15 79.4-11.8L79.4-11.8Q79.5-9.7 80.15-7.88 80.8-6.05 82.3-4.93 83.8-3.8 86.3-3.8ZM109.14 0L106.74 0Q106.24 0 105.92-0.33 105.59-0.65 105.59-1.15L105.59-1.15 105.59-24.85Q105.59-25.35 105.92-25.68 106.24-26 106.74-26L106.74-26 109.14-26Q109.64-26 109.97-25.68 110.29-25.35 110.29-24.85L110.29-24.85 110.29-1.15Q110.29-0.65 109.97-0.33 109.64 0 109.14 0L109.14 0ZM109.49-30.85L106.34-30.85Q105.84-30.85 105.52-31.18 105.19-31.5 105.19-32L105.19-32 105.19-34.7Q105.19-35.2 105.52-35.55 105.84-35.9 106.34-35.9L106.34-35.9 109.49-35.9Q109.99-35.9 110.34-35.55 110.69-35.2 110.69-34.7L110.69-34.7 110.69-32Q110.69-31.5 110.34-31.18 109.99-30.85 109.49-30.85L109.49-30.85ZM128.19 0.5L128.19 0.5Q124.64 0.5 122.07-0.88 119.49-2.25 118.09-4.83 116.69-7.4 116.59-11L116.59-11Q116.54-11.75 116.54-13 116.54-14.25 116.59-15L116.59-15Q116.69-18.6 118.09-21.18 119.49-23.75 122.07-25.13 124.64-26.5 128.19-26.5L128.19-26.5Q131.09-26.5 133.17-25.7 135.24-24.9 136.59-23.65 137.94-22.4 138.62-20.95 139.29-19.5 139.34-18.2L139.34-18.2Q139.39-17.7 139.04-17.4 138.69-17.1 138.19-17.1L138.19-17.1 135.79-17.1Q135.29-17.1 135.04-17.32 134.79-17.55 134.54-18.1L134.54-18.1Q133.64-20.55 132.09-21.55 130.54-22.55 128.24-22.55L128.24-22.55Q125.24-22.55 123.37-20.7 121.49-18.85 121.34-14.75L121.34-14.75Q121.29-12.95 121.34-11.25L121.34-11.25Q121.49-7.1 123.37-5.28 125.24-3.45 128.24-3.45L128.24-3.45Q130.54-3.45 132.09-4.45 133.64-5.45 134.54-7.9L134.54-7.9Q134.79-8.45 135.04-8.7 135.29-8.95 135.79-8.95L135.79-8.95 138.19-8.95Q138.69-8.95 139.04-8.63 139.39-8.3 139.34-7.8L139.34-7.8Q139.29-6.75 138.89-5.65 138.49-4.55 137.62-3.43 136.74-2.3 135.44-1.43 134.14-0.55 132.34-0.03 130.54 0.5 128.19 0.5ZM161.09 0L158.69 0Q158.19 0 157.86-0.33 157.53-0.65 157.53-1.15L157.53-1.15 157.53-24.85Q157.53-25.35 157.86-25.68 158.19-26 158.69-26L158.69-26 161.09-26Q161.59-26 161.91-25.68 162.24-25.35 162.24-24.85L162.24-24.85 162.24-1.15Q162.24-0.65 161.91-0.33 161.59 0 161.09 0L161.09 0ZM161.44-30.85L158.28-30.85Q157.78-30.85 157.46-31.18 157.14-31.5 157.14-32L157.14-32 157.14-34.7Q157.14-35.2 157.46-35.55 157.78-35.9 158.28-35.9L158.28-35.9 161.44-35.9Q161.94-35.9 162.28-35.55 162.64-35.2 162.64-34.7L162.64-34.7 162.64-32Q162.64-31.5 162.28-31.18 161.94-30.85 161.44-30.85L161.44-30.85ZM173.28 0L170.78 0Q170.28 0 169.96-0.33 169.63-0.65 169.63-1.15L169.63-1.15 169.63-24.85Q169.63-25.35 169.96-25.68 170.28-26 170.78-26L170.78-26 173.13-26Q173.63-26 173.96-25.68 174.28-25.35 174.28-24.85L174.28-24.85 174.28-22.65Q175.58-24.35 177.56-25.43 179.53-26.5 182.63-26.5L182.63-26.5Q185.88-26.5 188.16-25.08 190.43-23.65 191.61-21.13 192.78-18.6 192.78-15.25L192.78-15.25 192.78-1.15Q192.78-0.65 192.46-0.33 192.13 0 191.63 0L191.63 0 189.13 0Q188.63 0 188.31-0.33 187.98-0.65 187.98-1.15L187.98-1.15 187.98-15Q187.98-18.5 186.28-20.48 184.58-22.45 181.28-22.45L181.28-22.45Q178.18-22.45 176.31-20.48 174.43-18.5 174.43-15L174.43-15 174.43-1.15Q174.43-0.65 174.11-0.33 173.78 0 173.28 0L173.28 0ZM203.58 9.5L201.13 9.5Q200.63 9.5 200.31 9.18 199.98 8.85 199.98 8.35L199.98 8.35 199.98-24.85Q199.98-25.35 200.31-25.68 200.63-26 201.13-26L201.13-26 203.43-26Q203.93-26 204.26-25.68 204.58-25.35 204.58-24.85L204.58-24.85 204.58-22.65Q205.78-24.3 207.78-25.4 209.78-26.5 212.78-26.5L212.78-26.5Q215.58-26.5 217.56-25.55 219.53-24.6 220.81-22.95 222.08-21.3 222.73-19.2 223.38-17.1 223.48-14.7L223.48-14.7Q223.53-13.9 223.53-13 223.53-12.1 223.48-11.3L223.48-11.3Q223.38-8.95 222.73-6.83 222.08-4.7 220.81-3.08 219.53-1.45 217.56-0.48 215.58 0.5 212.78 0.5L212.78 0.5Q209.88 0.5 207.91-0.58 205.93-1.65 204.68-3.25L204.68-3.25 204.68 8.35Q204.68 8.85 204.38 9.18 204.08 9.5 203.58 9.5L203.58 9.5ZM211.73-3.55L211.73-3.55Q214.33-3.55 215.81-4.67 217.28-5.8 217.93-7.63 218.58-9.45 218.68-11.55L218.68-11.55Q218.73-13 218.68-14.45L218.68-14.45Q218.58-16.55 217.93-18.38 217.28-20.2 215.81-21.33 214.33-22.45 211.73-22.45L211.73-22.45Q209.28-22.45 207.76-21.3 206.23-20.15 205.51-18.38 204.78-16.6 204.68-14.75L204.68-14.75Q204.63-13.95 204.63-12.85 204.63-11.75 204.68-10.9L204.68-10.9Q204.73-9.15 205.51-7.45 206.28-5.75 207.83-4.65 209.38-3.55 211.73-3.55ZM236.98 0.5L236.98 0.5Q234.48 0.5 232.43-0.5 230.38-1.5 229.13-3.2 227.88-4.9 227.88-7.05L227.88-7.05Q227.88-10.5 230.68-12.55 233.48-14.6 237.98-15.25L237.98-15.25 245.43-16.3 245.43-17.75Q245.43-20.15 244.05-21.5 242.68-22.85 239.58-22.85L239.58-22.85Q237.38-22.85 235.98-21.95 234.58-21.05 234.03-19.65L234.03-19.65Q233.73-18.9 232.98-18.9L232.98-18.9 230.73-18.9Q230.18-18.9 229.9-19.23 229.63-19.55 229.63-20L229.63-20Q229.63-20.75 230.2-21.85 230.78-22.95 231.98-24 233.18-25.05 235.05-25.78 236.93-26.5 239.63-26.5L239.63-26.5Q242.63-26.5 244.68-25.73 246.73-24.95 247.9-23.65 249.08-22.35 249.6-20.7 250.13-19.05 250.13-17.35L250.13-17.35 250.13-1.15Q250.13-0.65 249.8-0.33 249.48 0 248.98 0L248.98 0 246.68 0Q246.13 0 245.83-0.33 245.53-0.65 245.53-1.15L245.53-1.15 245.53-3.3Q244.88-2.4 243.78-1.53 242.68-0.65 241.03-0.08 239.38 0.5 236.98 0.5ZM238.03-3.25L238.03-3.25Q240.08-3.25 241.78-4.13 243.48-5 244.45-6.85 245.43-8.7 245.43-11.5L245.43-11.5 245.43-12.9 239.63-12.05Q236.08-11.55 234.28-10.38 232.48-9.2 232.48-7.4L232.48-7.4Q232.48-6 233.3-5.08 234.13-4.15 235.4-3.7 236.68-3.25 238.03-3.25ZM260.88 0L258.48 0Q257.98 0 257.65-0.33 257.33-0.65 257.33-1.15L257.33-1.15 257.33-24.85Q257.33-25.35 257.65-25.68 257.98-26 258.48-26L258.48-26 260.88-26Q261.38-26 261.7-25.68 262.03-25.35 262.03-24.85L262.03-24.85 262.03-1.15Q262.03-0.65 261.7-0.33 261.38 0 260.88 0L260.88 0ZM261.23-30.85L258.08-30.85Q257.58-30.85 257.25-31.18 256.93-31.5 256.93-32L256.93-32 256.93-34.7Q256.93-35.2 257.25-35.55 257.58-35.9 258.08-35.9L258.08-35.9 261.23-35.9Q261.73-35.9 262.08-35.55 262.43-35.2 262.43-34.7L262.43-34.7 262.43-32Q262.43-31.5 262.08-31.18 261.73-30.85 261.23-30.85L261.23-30.85ZM273.07 0L270.57 0Q270.07 0 269.75-0.33 269.42-0.65 269.42-1.15L269.42-1.15 269.42-24.85Q269.42-25.35 269.75-25.68 270.07-26 270.57-26L270.57-26 272.92-26Q273.42-26 273.75-25.68 274.07-25.35 274.07-24.85L274.07-24.85 274.07-22.65Q275.37-24.35 277.35-25.43 279.32-26.5 282.42-26.5L282.42-26.5Q285.67-26.5 287.95-25.08 290.22-23.65 291.4-21.13 292.57-18.6 292.57-15.25L292.57-15.25 292.57-1.15Q292.57-0.65 292.25-0.33 291.92 0 291.42 0L291.42 0 288.92 0Q288.42 0 288.1-0.33 287.77-0.65 287.77-1.15L287.77-1.15 287.77-15Q287.77-18.5 286.07-20.48 284.37-22.45 281.07-22.45L281.07-22.45Q277.97-22.45 276.1-20.48 274.22-18.5 274.22-15L274.22-15 274.22-1.15Q274.22-0.65 273.9-0.33 273.57 0 273.07 0L273.07 0ZM313.32 0L309.87 0Q307.07 0 305.32-1.07 303.57-2.15 302.77-4.13 301.97-6.1 301.97-8.8L301.97-8.8 301.97-22 298.07-22Q297.57-22 297.25-22.33 296.92-22.65 296.92-23.15L296.92-23.15 296.92-24.85Q296.92-25.35 297.25-25.68 297.57-26 298.07-26L298.07-26 301.97-26 301.97-34.35Q301.97-34.85 302.3-35.18 302.62-35.5 303.12-35.5L303.12-35.5 305.47-35.5Q305.97-35.5 306.3-35.18 306.62-34.85 306.62-34.35L306.62-34.35 306.62-26 312.82-26Q313.37-26 313.67-25.68 313.97-25.35 313.97-24.85L313.97-24.85 313.97-23.15Q313.97-22.65 313.67-22.33 313.37-22 312.82-22L312.82-22 306.62-22 306.62-9.15Q306.62-6.8 307.42-5.45 308.22-4.1 310.27-4.1L310.27-4.1 313.32-4.1Q313.82-4.1 314.15-3.78 314.47-3.45 314.47-2.95L314.47-2.95 314.47-1.15Q314.47-0.65 314.15-0.33 313.82 0 313.32 0L313.32 0ZM322.82 0L320.42 0Q319.92 0 319.59-0.33 319.27-0.65 319.27-1.15L319.27-1.15 319.27-24.85Q319.27-25.35 319.59-25.68 319.92-26 320.42-26L320.42-26 322.82-26Q323.32-26 323.64-25.68 323.97-25.35 323.97-24.85L323.97-24.85 323.97-1.15Q323.97-0.65 323.64-0.33 323.32 0 322.82 0L322.82 0ZM323.17-30.85L320.02-30.85Q319.52-30.85 319.19-31.18 318.87-31.5 318.87-32L318.87-32 318.87-34.7Q318.87-35.2 319.19-35.55 319.52-35.9 320.02-35.9L320.02-35.9 323.17-35.9Q323.67-35.9 324.02-35.55 324.37-35.2 324.37-34.7L324.37-34.7 324.37-32Q324.37-31.5 324.02-31.18 323.67-30.85 323.17-30.85L323.17-30.85ZM335.02 0L332.52 0Q332.02 0 331.69-0.33 331.37-0.65 331.37-1.15L331.37-1.15 331.37-24.85Q331.37-25.35 331.69-25.68 332.02-26 332.52-26L332.52-26 334.87-26Q335.37-26 335.69-25.68 336.02-25.35 336.02-24.85L336.02-24.85 336.02-22.65Q337.32-24.35 339.29-25.43 341.27-26.5 344.37-26.5L344.37-26.5Q347.62-26.5 349.89-25.08 352.17-23.65 353.34-21.13 354.52-18.6 354.52-15.25L354.52-15.25 354.52-1.15Q354.52-0.65 354.19-0.33 353.87 0 353.37 0L353.37 0 350.87 0Q350.37 0 350.04-0.33 349.72-0.65 349.72-1.15L349.72-1.15 349.72-15Q349.72-18.5 348.02-20.48 346.32-22.45 343.02-22.45L343.02-22.45Q339.92-22.45 338.04-20.48 336.17-18.5 336.17-15L336.17-15 336.17-1.15Q336.17-0.65 335.84-0.33 335.52 0 335.02 0L335.02 0ZM372.31 11L372.31 11Q368.91 11 366.74 10.1 364.56 9.2 363.34 7.93 362.11 6.65 361.59 5.38 361.06 4.1 361.01 3.35L361.01 3.35Q360.96 2.85 361.34 2.5 361.71 2.15 362.16 2.15L362.16 2.15 364.56 2.15Q365.01 2.15 365.31 2.35 365.61 2.55 365.81 3.2L365.81 3.2Q366.11 3.95 366.71 4.88 367.31 5.8 368.56 6.48 369.81 7.15 372.06 7.15L372.06 7.15Q374.41 7.15 376.01 6.5 377.61 5.85 378.44 4.3 379.26 2.75 379.26 0L379.26 0 379.26-3.4Q378.06-1.85 376.11-0.83 374.16 0.2 371.21 0.2L371.21 0.2Q368.41 0.2 366.41-0.78 364.41-1.75 363.14-3.43 361.86-5.1 361.24-7.25 360.61-9.4 360.51-11.75L360.51-11.75Q360.46-13.15 360.51-14.5L360.51-14.5Q360.61-16.85 361.24-19 361.86-21.15 363.14-22.85 364.41-24.55 366.41-25.53 368.41-26.5 371.21-26.5L371.21-26.5Q374.21-26.5 376.19-25.4 378.16-24.3 379.41-22.65L379.41-22.65 379.41-24.8Q379.41-25.3 379.74-25.65 380.06-26 380.56-26L380.56-26 382.86-26Q383.36-26 383.71-25.65 384.06-25.3 384.06-24.8L384.06-24.8 384.06-0.55Q384.06 2.8 382.94 5.4 381.81 8 379.24 9.5 376.66 11 372.31 11ZM372.21-3.8L372.21-3.8Q374.71-3.8 376.24-4.95 377.76-6.1 378.49-7.85 379.21-9.6 379.26-11.4L379.26-11.4Q379.31-12.1 379.31-13.13 379.31-14.15 379.26-14.85L379.26-14.85Q379.21-16.65 378.49-18.4 377.76-20.15 376.24-21.3 374.71-22.45 372.21-22.45L372.21-22.45Q369.71-22.45 368.21-21.33 366.71-20.2 366.06-18.38 365.41-16.55 365.31-14.45L365.31-14.45Q365.26-13.15 365.31-11.8L365.31-11.8Q365.41-9.7 366.06-7.88 366.71-6.05 368.21-4.93 369.71-3.8 372.21-3.8Z" opacity="1" transform="matrix(1,0,0,1,0,0)" fill="#000000" class="wordmark-text-0" data-fill-palette-color="primary" id="text-0"></path></svg></g></svg></g><g transform="matrix(1,0,0,1,51.39578795292444,37.25069952724391)"><svg viewBox="0 0 141.6397840941511 18.62420458599369" height="18.62420458599369" width="141.6397840941511"><g transform="matrix(1,0,0,1,0,0)"><svg width="141.6397840941511" viewBox="1.85 -33.5 339.90999999999997 44.7" height="18.62420458599369" data-palette-color="#f9cc0b"><path d="M19.1-33.5L19.1-33.5Q23-33.5 26.1-32.13 29.2-30.75 31.38-28.43 33.55-26.1 34.73-23.03 35.9-19.95 35.9-16.6L35.9-16.6Q35.9-12.85 34.52-9.7 33.15-6.55 30.75-4.3 28.35-2.05 25.18-0.78 22 0.5 18.4 0.5L18.4 0.5Q14.55 0.5 11.48-0.9 8.4-2.3 6.28-4.6 4.15-6.9 3-9.9 1.85-12.9 1.85-16.15L1.85-16.15Q1.85-19.35 3-22.48 4.15-25.6 6.38-28.05 8.6-30.5 11.8-32 15-33.5 19.1-33.5ZM19.05-1.25L19.05-1.25Q22.4-1.4 24.93-2.78 27.45-4.15 29.15-6.28 30.85-8.4 31.68-10.95 32.5-13.5 32.5-16L32.5-16Q32.5-18.75 31.5-21.55 30.5-24.35 28.65-26.63 26.8-28.9 24.23-30.33 21.65-31.75 18.45-31.75L18.45-31.75Q15.35-31.75 12.9-30.38 10.45-29 8.72-26.85 7-24.7 6.1-22.05 5.2-19.4 5.2-16.85L5.2-16.85Q5.2-14.1 6.25-11.33 7.3-8.55 9.15-6.3 11-4.05 13.53-2.65 16.05-1.25 19.05-1.25ZM51-21.35L51-21.35Q53.7-21.35 55.67-20.45 57.65-19.55 58.95-18.05 60.25-16.55 60.9-14.63 61.55-12.7 61.55-10.7L61.55-10.7Q61.55-8.65 60.9-6.68 60.25-4.7 58.92-3.13 57.6-1.55 55.65-0.6 53.7 0.35 51.15 0.35L51.15 0.35Q49.25 0.35 47.7-0.43 46.15-1.2 45.25-2.3L45.25-2.3 45.25 0 40.35 0 40.35-0.5Q40.7-0.5 41-0.8 41.3-1.1 41.52-1.5 41.75-1.9 41.85-2.38 41.95-2.85 41.95-3.25L41.95-3.25 41.95-28.75Q41.95-29.6 41.7-30.35 41.45-31.1 40.25-31.15L40.25-31.15 40.25-31.65 45.25-33.2 45.25-18.9Q46.4-20.05 47.97-20.7 49.55-21.35 51-21.35ZM51.5-1.35L51.5-1.35Q53.3-1.45 54.6-2.23 55.9-3 56.77-4.2 57.65-5.4 58.07-6.93 58.5-8.45 58.5-10.05L58.5-10.05Q58.5-11.85 58-13.55 57.5-15.25 56.52-16.6 55.55-17.95 54.1-18.78 52.65-19.6 50.8-19.6L50.8-19.6Q49.75-19.6 48.75-19.13 47.75-18.65 46.97-17.88 46.2-17.1 45.72-16.03 45.25-14.95 45.25-13.75L45.25-13.75 45.25-7.55Q45.25-6.1 45.8-4.95 46.35-3.8 47.25-3 48.15-2.2 49.27-1.78 50.4-1.35 51.5-1.35ZM66.35-19.95L71.3-21.55 71.3-1.05Q71.3 0.5 70.92 1.8 70.55 3.1 69.95 4.2 69.35 5.3 68.6 6.18 67.85 7.05 67.05 7.75L67.05 7.75Q65.15 9.4 62.8 10.4L62.8 10.4 62.6 9.95Q64.1 9 65.3 7.5L65.3 7.5Q66.3 6.25 67.17 4.33 68.05 2.4 68.05-0.3L68.05-0.3 68.05-17.05Q68.05-17.9 67.8-18.68 67.55-19.45 66.35-19.5L66.35-19.5 66.35-19.95ZM66.9-26.4L66.9-26.4Q66.9-27.4 67.6-28.1 68.3-28.8 69.3-28.8L69.3-28.8Q70.3-28.8 70.97-28.1 71.65-27.4 71.65-26.4L71.65-26.4Q71.65-25.4 70.97-24.75 70.3-24.1 69.3-24.1L69.3-24.1Q68.3-24.1 67.6-24.75 66.9-25.4 66.9-26.4ZM96.54-10.1L79.19-10.1Q79.39-8.35 80.04-6.78 80.69-5.2 81.77-4 82.84-2.8 84.39-2.08 85.94-1.35 87.99-1.35L87.99-1.35Q89.09-1.35 90.32-1.68 91.54-2 92.59-2.6 93.64-3.2 94.47-4.08 95.29-4.95 95.59-6.05L95.59-6.05 96.04-6.05 96.04-2.3Q95.74-2.3 95.37-2.1 94.99-1.9 94.49-1.6L94.49-1.6Q93.49-1 91.79-0.33 90.09 0.35 87.29 0.35L87.29 0.35Q85.04 0.35 83.02-0.3 80.99-0.95 79.44-2.3 77.89-3.65 76.97-5.75 76.04-7.85 76.04-10.75L76.04-10.75Q76.04-12.6 76.67-14.5 77.29-16.4 78.57-17.93 79.84-19.45 81.84-20.4 83.84-21.35 86.64-21.35L86.64-21.35Q89.14-21.35 91.02-20.5 92.89-19.65 94.12-18.15 95.34-16.65 95.94-14.6 96.54-12.55 96.54-10.1L96.54-10.1ZM86.44-19.7L86.44-19.7Q84.69-19.7 83.42-19 82.14-18.3 81.24-17.2 80.34-16.1 79.84-14.7 79.34-13.3 79.19-11.9L79.19-11.9 93.44-11.9Q93.39-13.35 92.92-14.75 92.44-16.15 91.59-17.25 90.74-18.35 89.44-19.03 88.14-19.7 86.44-19.7ZM119.14-5.7L119.14-1.8Q118.74-1.8 118.39-1.63 118.04-1.45 117.59-1.2L117.59-1.2Q116.74-0.7 115.44-0.18 114.14 0.35 112.04 0.35L112.04 0.35Q109.49 0.35 107.32-0.48 105.14-1.3 103.57-2.78 101.99-4.25 101.12-6.23 100.24-8.2 100.24-10.5L100.24-10.5Q100.24-12.65 101.02-14.6 101.79-16.55 103.24-18.05 104.69-19.55 106.82-20.45 108.94-21.35 111.64-21.35L111.64-21.35Q113.49-21.35 114.64-20.93 115.79-20.5 116.59-20.1L116.59-20.1Q117.04-19.85 117.47-19.7 117.89-19.55 118.34-19.55L118.34-19.55 118.34-15.75 117.84-15.75Q117.59-16.7 116.94-17.43 116.29-18.15 115.44-18.65 114.59-19.15 113.59-19.4 112.59-19.65 111.64-19.65L111.64-19.65Q109.59-19.65 108.04-18.93 106.49-18.2 105.49-17.03 104.49-15.85 103.99-14.35 103.49-12.85 103.49-11.25L103.49-11.25Q103.49-9.4 104.09-7.63 104.69-5.85 105.82-4.45 106.94-3.05 108.54-2.2 110.14-1.35 112.14-1.35L112.14-1.35Q113.54-1.35 114.72-1.75 115.89-2.15 116.72-2.8 117.54-3.45 118.04-4.23 118.54-5 118.64-5.7L118.64-5.7 119.14-5.7ZM132.99-19.3L127.39-19.3 127.39-7.25Q127.39-5.95 127.44-4.9 127.49-3.85 127.69-3.15 127.89-2.45 128.29-2.08 128.69-1.7 129.39-1.7L129.39-1.7Q130.44-1.7 131.36-2.7 132.29-3.7 132.54-5.1L132.54-5.1 132.99-5.1 132.99-1.45Q132.54-1.45 132.24-1.15L132.24-1.15Q131.84-0.8 131.11-0.4 130.39 0 128.94 0L128.94 0Q127.14 0 126.14-0.7 125.14-1.4 124.69-2.55 124.24-3.7 124.16-5.1 124.09-6.5 124.09-7.95L124.09-7.95 124.09-19.3 121.29-19.3 121.29-21 124.09-21 124.09-25.45Q124.09-26.3 123.86-27.03 123.64-27.75 122.39-27.8L122.39-27.8 122.39-28.3 127.39-29.9 127.39-21 132.99-21 132.99-19.3ZM153.83-31.25L153.83-31.25Q153.83-30.95 153.98-30.5L153.98-30.5 162.78-6.8 171.58-30.75Q171.63-30.85 171.68-31.05 171.73-31.25 171.73-31.35L171.73-31.35Q171.73-31.95 171.26-32.23 170.78-32.5 170.38-32.5L170.38-32.5 170.38-33 175.83-33 175.83-32.5Q175.08-32.5 174.46-32.1 173.83-31.7 173.48-30.75L173.48-30.75 162.03 0.6 150.33-30.6Q150.03-31.35 149.46-31.9 148.88-32.45 148.03-32.5L148.03-32.5 148.03-33 155.13-33 155.13-32.5Q154.68-32.5 154.26-32.18 153.83-31.85 153.83-31.25ZM191.18 0L186.33 0 186.33-2.55 186.08-2.3Q184.83-1.05 183.2-0.35 181.58 0.35 179.28 0.35L179.28 0.35Q177.53 0.35 176.28-0.05 175.03-0.45 174.23-1.18 173.43-1.9 173.06-2.85 172.68-3.8 172.68-4.85L172.68-4.85Q172.68-6.55 173.6-7.85 174.53-9.15 176.28-10.15 178.03-11.15 180.56-11.98 183.08-12.8 186.33-13.6L186.33-13.6Q186.23-15.55 185.53-16.75 184.83-17.95 183.88-18.63 182.93-19.3 181.88-19.53 180.83-19.75 180.08-19.75L180.08-19.75Q178.78-19.75 177.81-19.35 176.83-18.95 176.1-18.32 175.38-17.7 174.88-16.98 174.38-16.25 174.08-15.6L174.08-15.6 173.63-15.6 173.63-19.25Q174.03-19.3 174.38-19.5 174.73-19.7 175.23-19.9L175.23-19.9Q175.98-20.2 177.28-20.78 178.58-21.35 180.93-21.35L180.93-21.35Q183.68-21.35 185.38-20.65 187.08-19.95 188-18.8 188.93-17.65 189.23-16.18 189.53-14.7 189.53-13.15L189.53-13.15 189.53-3.25Q189.53-2.25 189.98-1.38 190.43-0.5 191.18-0.5L191.18-0.5 191.18 0ZM185.78-4.15L186.33-4.75 186.33-11.9 185.83-11.8Q184.63-11.5 182.91-11 181.18-10.5 179.63-9.7 178.08-8.9 176.98-7.8 175.88-6.7 175.88-5.25L175.88-5.25Q175.88-3.65 177.18-2.6 178.48-1.55 180.58-1.55L180.58-1.55Q182.23-1.55 183.48-2.27 184.73-3 185.78-4.15L185.78-4.15ZM216.08-12.9L216.08-3.25Q216.08-2.85 216.18-2.38 216.28-1.9 216.5-1.5 216.73-1.1 217-0.8 217.28-0.5 217.68-0.5L217.68-0.5 217.68 0 211.23 0 211.23-0.5Q211.58-0.5 211.88-0.8 212.18-1.1 212.4-1.5 212.63-1.9 212.73-2.38 212.83-2.85 212.83-3.25L212.83-3.25 212.83-12.55Q212.83-14.35 212.33-15.7 211.83-17.05 210.98-17.95 210.13-18.85 209.05-19.28 207.98-19.7 206.88-19.7L206.88-19.7Q205.78-19.7 204.7-19.25 203.63-18.8 202.8-18.07 201.98-17.35 201.45-16.38 200.93-15.4 200.93-14.35L200.93-14.35 200.93-3.25Q200.93-2.85 201.03-2.38 201.13-1.9 201.35-1.5 201.58-1.1 201.85-0.8 202.13-0.5 202.53-0.5L202.53-0.5 202.53 0 196.03 0 196.03-0.5Q196.38-0.5 196.68-0.8 196.98-1.1 197.2-1.5 197.43-1.9 197.53-2.38 197.63-2.85 197.63-3.25L197.63-3.25 197.63-17.05Q197.63-17.9 197.38-18.68 197.13-19.45 195.93-19.5L195.93-19.5 195.93-19.95 200.93-21.55 200.93-18.8Q201.28-19.2 201.83-19.68 202.38-20.15 203.15-20.58 203.93-21 204.95-21.28 205.98-21.55 207.38-21.55L207.38-21.55Q209.73-21.55 211.38-20.75 213.03-19.95 214.08-18.68 215.13-17.4 215.6-15.88 216.08-14.35 216.08-12.9L216.08-12.9ZM229.77 0L223.27 0 223.27-0.5Q223.67-0.5 223.97-0.8 224.27-1.1 224.47-1.5 224.67-1.9 224.77-2.38 224.88-2.85 224.88-3.25L224.88-3.25 224.88-17.1Q224.88-17.95 224.63-18.73 224.38-19.5 223.17-19.55L223.17-19.55 223.17-20 228.17-21.6 228.17-3.25Q228.17-2.85 228.27-2.38 228.38-1.9 228.57-1.5 228.77-1.1 229.07-0.8 229.38-0.5 229.77-0.5L229.77-0.5 229.77 0ZM223.52-26.4L223.52-26.4Q223.52-27.4 224.2-28.1 224.88-28.8 225.88-28.8L225.88-28.8Q226.88-28.8 227.57-28.1 228.27-27.4 228.27-26.4L228.27-26.4Q228.27-25.4 227.57-24.75 226.88-24.1 225.88-24.1L225.88-24.1Q224.88-24.1 224.2-24.75 223.52-25.4 223.52-26.4ZM251.37-5.7L251.37-5.7Q251.37-4.4 250.72-3.3 250.07-2.2 248.95-1.38 247.82-0.55 246.32-0.08 244.82 0.4 243.07 0.4L243.07 0.4Q240.92 0.4 239.57-0.18 238.22-0.75 237.27-1.35L237.27-1.35Q236.62-1.75 236.07-2.02 235.52-2.3 234.87-2.3L234.87-2.3 234.87-6.1 235.37-6.1Q235.52-5.4 236.25-4.58 236.97-3.75 238-3.05 239.02-2.35 240.25-1.88 241.47-1.4 242.72-1.4L242.72-1.4Q243.62-1.4 244.57-1.6 245.52-1.8 246.3-2.25 247.07-2.7 247.6-3.38 248.12-4.05 248.12-5L248.12-5Q248.12-5.95 247.57-6.65 247.02-7.35 246.17-7.88 245.32-8.4 244.22-8.8 243.12-9.2 242.02-9.55L242.02-9.55Q240.72-9.95 239.4-10.45 238.07-10.95 237.02-11.63 235.97-12.3 235.32-13.28 234.67-14.25 234.67-15.6L234.67-15.6Q234.67-16.75 235.1-17.8 235.52-18.85 236.5-19.63 237.47-20.4 239.02-20.88 240.57-21.35 242.77-21.35L242.77-21.35Q244.72-21.35 245.8-21.03 246.87-20.7 247.57-20.35L247.57-20.35Q248.02-20.1 248.47-19.98 248.92-19.85 249.47-19.85L249.47-19.85 249.47-16.35 249.07-16.35Q248.17-18 246.32-18.85 244.47-19.7 242.52-19.7L242.52-19.7Q241.27-19.7 240.37-19.38 239.47-19.05 238.9-18.57 238.32-18.1 238.05-17.5 237.77-16.9 237.77-16.3L237.77-16.3Q237.77-15.45 238.25-14.85 238.72-14.25 239.55-13.8 240.37-13.35 241.4-12.95 242.42-12.55 243.57-12.2L243.57-12.2Q244.97-11.75 246.37-11.23 247.77-10.7 248.87-9.95 249.97-9.2 250.67-8.18 251.37-7.15 251.37-5.7ZM275.77-12.9L275.77-3.25Q275.77-2.85 275.87-2.38 275.97-1.9 276.19-1.5 276.42-1.1 276.69-0.8 276.97-0.5 277.37-0.5L277.37-0.5 277.37 0 270.92 0 270.92-0.5Q271.27-0.5 271.57-0.8 271.87-1.1 272.1-1.5 272.32-1.9 272.42-2.38 272.52-2.85 272.52-3.25L272.52-3.25 272.52-12.55Q272.52-14.35 272.02-15.7 271.52-17.05 270.67-17.95 269.82-18.85 268.75-19.28 267.67-19.7 266.57-19.7L266.57-19.7Q265.47-19.7 264.4-19.28 263.32-18.85 262.5-18.1 261.67-17.35 261.15-16.28 260.62-15.2 260.62-13.9L260.62-13.9 260.62-3.25Q260.62-2.85 260.72-2.38 260.82-1.9 261.05-1.5 261.27-1.1 261.55-0.8 261.82-0.5 262.22-0.5L262.22-0.5 262.22 0 255.72 0 255.72-0.5Q256.07-0.5 256.37-0.8 256.67-1.1 256.9-1.5 257.12-1.9 257.22-2.38 257.32-2.85 257.32-3.25L257.32-3.25 257.32-28.8Q257.32-29.65 257.07-30.4 256.82-31.15 255.62-31.2L255.62-31.2 255.62-31.7 260.62-33.25 260.62-18.8Q260.97-19.2 261.52-19.68 262.07-20.15 262.85-20.58 263.62-21 264.65-21.28 265.67-21.55 267.07-21.55L267.07-21.55Q269.42-21.55 271.07-20.75 272.72-19.95 273.77-18.68 274.82-17.4 275.3-15.88 275.77-14.35 275.77-12.9L275.77-12.9ZM289.47 0L282.97 0 282.97-0.5Q283.37-0.5 283.67-0.8 283.97-1.1 284.17-1.5 284.37-1.9 284.47-2.38 284.57-2.85 284.57-3.25L284.57-3.25 284.57-17.1Q284.57-17.95 284.32-18.73 284.07-19.5 282.87-19.55L282.87-19.55 282.87-20 287.87-21.6 287.87-3.25Q287.87-2.85 287.97-2.38 288.07-1.9 288.27-1.5 288.47-1.1 288.77-0.8 289.07-0.5 289.47-0.5L289.47-0.5 289.47 0ZM283.22-26.4L283.22-26.4Q283.22-27.4 283.89-28.1 284.57-28.8 285.57-28.8L285.57-28.8Q286.57-28.8 287.27-28.1 287.97-27.4 287.97-26.4L287.97-26.4Q287.97-25.4 287.27-24.75 286.57-24.1 285.57-24.1L285.57-24.1Q284.57-24.1 283.89-24.75 283.22-25.4 283.22-26.4ZM314.92-12.9L314.92-3.25Q314.92-2.85 315.02-2.38 315.12-1.9 315.34-1.5 315.57-1.1 315.84-0.8 316.12-0.5 316.52-0.5L316.52-0.5 316.52 0 310.07 0 310.07-0.5Q310.42-0.5 310.72-0.8 311.02-1.1 311.24-1.5 311.47-1.9 311.57-2.38 311.67-2.85 311.67-3.25L311.67-3.25 311.67-12.55Q311.67-14.35 311.17-15.7 310.67-17.05 309.82-17.95 308.97-18.85 307.89-19.28 306.82-19.7 305.72-19.7L305.72-19.7Q304.62-19.7 303.54-19.25 302.47-18.8 301.64-18.07 300.82-17.35 300.29-16.38 299.77-15.4 299.77-14.35L299.77-14.35 299.77-3.25Q299.77-2.85 299.87-2.38 299.97-1.9 300.19-1.5 300.42-1.1 300.69-0.8 300.97-0.5 301.37-0.5L301.37-0.5 301.37 0 294.87 0 294.87-0.5Q295.22-0.5 295.52-0.8 295.82-1.1 296.04-1.5 296.27-1.9 296.37-2.38 296.47-2.85 296.47-3.25L296.47-3.25 296.47-17.05Q296.47-17.9 296.22-18.68 295.97-19.45 294.77-19.5L294.77-19.5 294.77-19.95 299.77-21.55 299.77-18.8Q300.12-19.2 300.67-19.68 301.22-20.15 301.99-20.58 302.77-21 303.79-21.28 304.82-21.55 306.22-21.55L306.22-21.55Q308.57-21.55 310.22-20.75 311.87-19.95 312.92-18.68 313.97-17.4 314.44-15.88 314.92-14.35 314.92-12.9L314.92-12.9ZM331.81 9.3L331.81 9.3Q333.31 9.3 334.66 9.03 336.01 8.75 337.04 8.25 338.06 7.75 338.66 7.05 339.26 6.35 339.26 5.55L339.26 5.55Q339.26 4.7 338.44 4.1 337.61 3.5 336.21 3.05 334.81 2.6 332.96 2.27 331.11 1.95 329.11 1.6L329.11 1.6 326.56 1.15Q325.41 2.05 324.96 3.05 324.51 4.05 324.51 4.8L324.51 4.8Q324.51 5.85 325.09 6.68 325.66 7.5 326.64 8.1 327.61 8.7 328.94 9 330.26 9.3 331.81 9.3ZM328.31-1.7L334.56-0.7Q336.56-0.4 337.89 0.1 339.21 0.6 340.01 1.28 340.81 1.95 341.11 2.78 341.41 3.6 341.41 4.55L341.41 4.55Q341.41 6.25 340.49 7.5 339.56 8.75 338.09 9.58 336.61 10.4 334.74 10.8 332.86 11.2 330.91 11.2L330.91 11.2Q329.01 11.2 327.26 10.83 325.51 10.45 324.16 9.7 322.81 8.95 322.01 7.83 321.21 6.7 321.21 5.25L321.21 5.25Q321.21 3.95 322.01 2.78 322.81 1.6 324.61 0.45L324.61 0.45Q322.86-0.45 321.94-1.98 321.01-3.5 321.01-5.1L321.01-5.1Q321.01-6.05 321.46-6.98 321.91-7.9 322.91-8.7L322.91-8.7Q322.06-9.7 321.71-10.7 321.36-11.7 321.36-12.85L321.36-12.85Q321.36-14.65 322.11-16.2 322.86-17.75 324.16-18.9 325.46-20.05 327.21-20.7 328.96-21.35 330.96-21.35L330.96-21.35Q333.06-21.35 334.96-20.63 336.86-19.9 338.16-18.75L338.16-18.75 341.76-18.75 341.76-16.95 339.46-16.95Q339.81-16.2 340.16-15.18 340.51-14.15 340.51-13.05L340.51-13.05Q340.51-11.45 339.76-10.03 339.01-8.6 337.69-7.53 336.36-6.45 334.59-5.83 332.81-5.2 330.81-5.2L330.81-5.2Q328.96-5.2 327.21-5.75 325.46-6.3 324.11-7.35L324.11-7.35Q323.56-7 323.36-6.48 323.16-5.95 323.16-5.4L323.16-5.4Q323.16-3.8 324.61-2.93 326.06-2.05 328.31-1.7L328.31-1.7ZM330.36-19.6L330.36-19.6Q329.16-19.6 328.11-19.18 327.06-18.75 326.26-18 325.46-17.25 324.99-16.18 324.51-15.1 324.51-13.75L324.51-13.75Q324.51-12.1 325.19-10.8 325.86-9.5 326.91-8.65 327.96-7.8 329.24-7.35 330.51-6.9 331.66-6.9L331.66-6.9Q332.91-6.9 333.94-7.38 334.96-7.85 335.71-8.68 336.46-9.5 336.86-10.6 337.26-11.7 337.26-12.9L337.26-12.9Q337.26-14.4 336.66-15.65 336.06-16.9 335.09-17.78 334.11-18.65 332.86-19.13 331.61-19.6 330.36-19.6Z" opacity="1" transform="matrix(1,0,0,1,0,0)" fill="#000000" class="slogan-text-1" data-fill-palette-color="secondary" id="text-1"></path></svg></g></svg></g></svg></g></svg></g><g transform="matrix(1,0,0,1,60.22060191762423,0)"><svg viewBox="0 0 125.21231296475149 77.21911748449438" height="77.21911748449438" width="125.21231296475149"><g><svg xmlns="http://www.w3.org/2000/svg" xmlns:xlink="http://www.w3.org/1999/xlink" version="1.1" x="8" y="0" viewBox="2 10.789 59.99863289999999 42.42233642931336" enable-background="new 0 0 64 64" xml:space="preserve" height="77.21911748449438" width="109.21231296475149" class="icon-icon-0" data-fill-palette-color="accent" id="icon-0"><g fill="#f9f9f9" data-fill-palette-color="accent"><path d="M48.931 30.664l-0.665-0.624-2.186-2.051-1.219-1.146c-3.365 1.82-12.687 7.391-12.687 7.391 1.263 6.559-0.401 11.541-1.451 13.853-0.974-0.637-2.29-0.508-3.113 0.369-0.924 0.983-0.875 2.529 0.109 3.453l2.293-2.442c-0.013 0.021-0.029 0.047-0.029 0.047l9.462-10.079c-0.295-0.541-0.231-1.229 0.213-1.702 0.555-0.591 1.482-0.62 2.072-0.065 0.591 0.554 0.62 1.481 0.066 2.072-0.445 0.473-1.128 0.579-1.686 0.319l-9.463 10.079c0 0 0.025-0.018 0.047-0.033L28.4 52.549c0.984 0.924 2.53 0.875 3.453-0.108 0.824-0.878 0.869-2.199 0.172-3.131 2.241-1.193 7.108-3.168 13.733-2.322 0 0 4.972-9.654 6.576-13.128l-1.694-1.59L48.931 30.664z" fill="#000000" data-fill-palette-color="accent"></path><rect x="47.446" y="18.782" transform="matrix(0.6844 -0.7291 0.7291 0.6844 -1.7659 46.8175)" width="11.51" height="13.333" fill="#000000" data-fill-palette-color="accent"></rect><polygon points="5.652,14.441 56.316,14.441 56.316,10.789 2,10.789 2,52.534 23.572,52.534 23.572,48.882 5.652,48.882  " fill="#000000" data-fill-palette-color="accent"></polygon></g></svg></g></svg></g><g><rect width="12.92313375762425" height="2.7177184300065433" y="73.50139905448783" x="185.4329148823757" fill="#000000" data-fill-palette-color="secondary"></rect><rect width="12.92313375762425" height="2.7177184300065433" y="73.50139905448783" x="47.29746815999998" fill="#000000" data-fill-palette-color="secondary"></rect></g></svg></g></svg></g><g><path d="M106.889 41.874A122.216 122.216 0 0 1 288.631 41.874L285.927 41.874A119.511 119.511 0 0 0 109.593 41.874L106.889 41.874M106.889 205.326A122.216 122.216 0 0 0 288.631 205.326L285.927 205.326A119.511 119.511 0 0 1 109.593 205.326L106.889 205.326" fill="#000000" stroke="transparent" data-fill-palette-color="tertiary"></path></g></svg></g><defs></defs></svg><rect width="395.52" height="247.2" fill="none" stroke="none" visibility="hidden"></rect></g></svg></g></svg>