<svg xmlns="http://www.w3.org/2000/svg" version="1.1" xmlns:xlink="http://www.w3.org/1999/xlink" xmlns:svgjs="http://svgjs.dev/svgjs" width="2000" height="247" viewBox="0 0 2000 247"><g transform="matrix(1,0,0,1,-1.2121212121210192,0.7151480247339634)"><svg viewBox="0 0 396 49" data-background-color="#ffffff" preserveAspectRatio="xMidYMid meet" height="247" width="2000" xmlns="http://www.w3.org/2000/svg" xmlns:xlink="http://www.w3.org/1999/xlink"><g id="tight-bounds" transform="matrix(1,0,0,1,0.23999999999995225,-0.14187147049378268)"><svg viewBox="0 0 395.52 49.28374294098759" height="49.28374294098759" width="395.52"><g><svg viewBox="0 0 469.3196150222441 58.479538996560315" height="49.28374294098759" width="395.52"><g transform="matrix(1,0,0,1,73.79961502224413,8.082193884473966)"><svg viewBox="0 0 395.52 42.31515122761238" height="42.31515122761238" width="395.52"><g id="textblocktransform"><svg viewBox="0 0 395.52 42.31515122761238" height="42.31515122761238" width="395.52" id="textblock"><g><svg viewBox="0 0 395.52 42.31515122761238" height="42.31515122761238" width="395.52"><g transform="matrix(1,0,0,1,0,0)"><svg width="395.52" viewBox="3.3 -34.6 421.51 45.1" height="42.31515122761238" data-palette-color="#fb3313"><path d="M32.85-5.2L32.85-18.3 26.6-5.5Q25.8-3.9 24.9-3.23 24-2.55 22.75-2.55L22.75-2.55Q21.15-2.55 20.05-3.68 18.95-4.8 17.2-7.75L17.2-7.75 11.4-18.3 11.4-4.15Q11.4-2 10.43-1 9.45 0 7.5 0L7.5 0Q5.3 0 4.3-0.98 3.3-1.95 3.3-4.8L3.3-4.8 3.3-26.6Q3.3-30.45 5.05-32.4 6.8-34.35 10.95-34.35L10.95-34.35Q12.5-34.35 13.65-33.83 14.8-33.3 15.38-32.63 15.95-31.95 16.5-30.95L16.5-30.95 23.2-16.3 30.3-30.7Q32.15-34.3 36.95-34.3L36.95-34.3Q39.2-34.3 40.8-33.52 42.4-32.75 43.33-31.03 44.25-29.3 44.25-26.7L44.25-26.7 44.25-4.95Q44.2 0 38 0L38 0Q35.75 0 34.33-1.23 32.9-2.45 32.85-5.2L32.85-5.2ZM58.2 0.3L58.2 0.3Q54.25 0.3 51.65-2.93 49.05-6.15 49.05-11.75L49.05-11.75Q49.05-17.45 51.62-20.83 54.2-24.2 58.2-24.2L58.2-24.2Q62.25-24.2 65.7-21.35L65.7-21.35Q67.05-23.85 70.05-23.85L70.05-23.85Q72.75-23.85 74.25-22.68 75.75-21.5 75.75-18.35L75.75-18.35 75.75-5.35Q75.75-2.35 74.5-1.18 73.25 0 70.1 0L70.1 0Q66.8 0 65.75-1.85L65.75-1.85Q62.55 0.3 58.2 0.3ZM65-7.2L65-16.55Q64.15-18 62.8-18L62.8-18Q61.5-18 60.7-16.1 59.9-14.2 59.9-11.75L59.9-11.75Q59.9-9.45 60.65-7.65 61.4-5.85 62.75-5.85L62.75-5.85Q64.15-5.85 65-7.2L65-7.2ZM89.55 0.3L89.55 0.3Q85.6 0.3 83-2.93 80.4-6.15 80.4-11.8L80.4-11.8Q80.4-17.5 82.95-20.85 85.5-24.2 89.5-24.2L89.5-24.2Q93.55-24.2 97-21.4L97-21.4Q98.3-23.85 101.3-23.85L101.3-23.85Q104-23.85 105.52-22.65 107.05-21.45 107.05-18.35L107.05-18.35 107.05-9.2Q107.05-4.35 106.42-0.88 105.8 2.6 104.27 5.25 102.75 7.9 100.07 9.2 97.4 10.5 93.5 10.5L93.5 10.5Q90.8 10.5 88.5 9.75 86.2 9 84.85 7.9 83.5 6.8 82.75 5.7 82 4.6 82 3.8L82 3.8Q82 2.85 82.55 2.2 83.1 1.55 84.1 1.55L84.1 1.55Q84.7 1.55 87.12 2.85 89.55 4.15 91.05 4.15L91.05 4.15Q96.15 4.15 96.15-1.1L96.15-1.1Q93.25 0.3 89.55 0.3ZM96.35-7.2L96.35-7.2 96.3-16.65Q95.45-18.05 94.15-18.05L94.15-18.05Q93.25-18.05 92.57-17.1 91.9-16.15 91.57-14.75 91.25-13.35 91.25-11.8L91.25-11.8Q91.25-9.45 92-7.68 92.75-5.9 94.1-5.9L94.1-5.9Q95.45-5.9 96.35-7.2ZM111.49-30.8L111.49-30.8Q111.49-32.45 112.92-33.52 114.34-34.6 116.94-34.6L116.94-34.6Q122.39-34.6 122.39-30.8L122.39-30.8Q122.39-28.7 121.02-27.85 119.64-27 116.94-27L116.94-27Q114.59-27 113.04-27.9 111.49-28.8 111.49-30.8ZM122.34-18.35L122.34-5.35Q122.34-2.35 121.09-1.18 119.84 0 116.69 0L116.69 0Q113.74 0 112.67-1.38 111.59-2.75 111.59-5.9L111.59-5.9 111.59-18.2Q111.59-20.75 112.97-22.3 114.34-23.85 116.64-23.85L116.64-23.85Q119.34-23.85 120.84-22.68 122.34-21.5 122.34-18.35L122.34-18.35ZM141.69-18.7L141.69-18.7Q141.69-19.85 140.39-19.85L140.39-19.85Q139.44-19.85 138.69-18.8 137.94-17.75 137.54-16.18 137.14-14.6 137.14-12.9L137.14-12.9Q137.14-10.4 138.67-8.85 140.19-7.3 142.79-7.3L142.79-7.3Q145.34-7.3 147.19-7.9L147.19-7.9Q147.94-8.1 149.02-8.65 150.09-9.2 150.54-9.2L150.54-9.2Q151.24-9.2 151.69-8.95 152.14-8.7 152.32-8.35 152.49-8 152.49-7.6L152.49-7.6Q152.49-6.9 152.02-5.9 151.54-4.9 150.54-3.8 149.54-2.7 148.22-1.78 146.89-0.85 144.94-0.25 142.99 0.35 140.84 0.35L140.84 0.35Q134.64 0.35 130.64-2.98 126.64-6.3 126.64-12.1L126.64-12.1Q126.64-15.8 128.47-18.57 130.29-21.35 133.49-22.78 136.69-24.2 140.84-24.2L140.84-24.2Q144.79-24.2 147.37-23.28 149.94-22.35 151.04-20.8 152.14-19.25 152.14-17.1L152.14-17.1Q152.14-16.15 151.77-15.15 151.39-14.15 150.62-13.15 149.84-12.15 148.34-11.53 146.84-10.9 144.84-10.9L144.84-10.9Q143.94-10.9 143.37-11 142.79-11.1 142.17-11.43 141.54-11.75 141.24-12.5 140.94-13.25 140.94-14.4L140.94-14.4Q140.94-15.4 141.32-16.82 141.69-18.25 141.69-18.7ZM183.04-28.7L183.04-7.5Q183.04-3.6 181.59-1.8 180.14 0 177.19 0L177.19 0Q174.29 0 172.91-1.55 171.54-3.1 171.54-7.1L171.54-7.1 171.54-28.25Q171.54-34.25 177.19-34.25L177.19-34.25Q180.09-34.25 181.56-33.15 183.04-32.05 183.04-28.7L183.04-28.7ZM203.93-4.15L203.88-13.45Q203.88-16.25 201.68-16.25L201.68-16.25Q200.63-16.25 199.96-15.38 199.28-14.5 199.18-13.05L199.18-13.05 199.18-5.35Q199.18-2.3 197.93-1.15 196.68 0 193.53 0L193.53 0Q190.58 0 189.51-1.38 188.43-2.75 188.43-5.9L188.43-5.9 188.43-18.2Q188.43-20.75 189.81-22.3 191.18-23.85 193.48-23.85L193.48-23.85Q195.38-23.85 196.68-23.3 197.98-22.75 198.63-21.4L198.63-21.4Q202.53-23.95 208.13-23.95L208.13-23.95Q211.68-23.95 213.26-21.15 214.83-18.35 214.83-11.95L214.83-11.95Q214.83-8.8 214.68-6.83 214.53-4.85 214.21-3.43 213.88-2 213.18-1.3 212.48-0.6 211.56-0.3 210.63 0 209.18 0L209.18 0Q206.38 0 205.16-1.05 203.93-2.1 203.93-4.15L203.93-4.15ZM230.38-1.4L230.38 2.9Q230.38 6.95 229.03 8.68 227.68 10.4 224.88 10.4L224.88 10.4Q222.08 10.4 220.78 8.83 219.48 7.25 219.48 3.25L219.48 3.25 219.38-17.85Q219.38-20.95 220.88-22.4 222.38-23.85 224.88-23.85L224.88-23.85Q226.83-23.85 228.03-23.38 229.23-22.9 229.83-21.5L229.83-21.5Q233.28-24.2 237.23-24.2L237.23-24.2Q241.23-24.2 243.78-20.85 246.33-17.5 246.33-11.75L246.33-11.75Q246.33-6.15 243.73-2.93 241.13 0.3 237.18 0.3L237.18 0.3Q233.38 0.3 230.38-1.4L230.38-1.4ZM230.38-16.55L230.38-7.25Q231.23-5.85 232.63-5.85L232.63-5.85Q233.98-5.85 234.73-7.65 235.48-9.45 235.48-11.75L235.48-11.75Q235.48-14.2 234.68-16.1 233.88-18 232.58-18L232.58-18Q231.23-18 230.38-16.55L230.38-16.55ZM259.33 0.3L259.33 0.3Q255.38 0.3 252.78-2.93 250.18-6.15 250.18-11.75L250.18-11.75Q250.18-17.45 252.75-20.83 255.33-24.2 259.33-24.2L259.33-24.2Q263.38-24.2 266.83-21.35L266.83-21.35Q268.18-23.85 271.18-23.85L271.18-23.85Q273.88-23.85 275.38-22.68 276.88-21.5 276.88-18.35L276.88-18.35 276.88-5.35Q276.88-2.35 275.63-1.18 274.38 0 271.23 0L271.23 0Q267.93 0 266.88-1.85L266.88-1.85Q263.68 0.3 259.33 0.3ZM266.13-7.2L266.13-16.55Q265.28-18 263.93-18L263.93-18Q262.63-18 261.83-16.1 261.03-14.2 261.03-11.75L261.03-11.75Q261.03-9.45 261.78-7.65 262.53-5.85 263.88-5.85L263.88-5.85Q265.28-5.85 266.13-7.2L266.13-7.2ZM281.43-30.8L281.43-30.8Q281.43-32.45 282.85-33.52 284.28-34.6 286.88-34.6L286.88-34.6Q292.33-34.6 292.33-30.8L292.33-30.8Q292.33-28.7 290.95-27.85 289.58-27 286.88-27L286.88-27Q284.53-27 282.98-27.9 281.43-28.8 281.43-30.8ZM292.28-18.35L292.28-5.35Q292.28-2.35 291.03-1.18 289.78 0 286.63 0L286.63 0Q283.68 0 282.6-1.38 281.53-2.75 281.53-5.9L281.53-5.9 281.53-18.2Q281.53-20.75 282.9-22.3 284.28-23.85 286.58-23.85L286.58-23.85Q289.28-23.85 290.78-22.68 292.28-21.5 292.28-18.35L292.28-18.35ZM312.22-4.15L312.17-13.45Q312.17-16.25 309.97-16.25L309.97-16.25Q308.92-16.25 308.25-15.38 307.57-14.5 307.47-13.05L307.47-13.05 307.47-5.35Q307.47-2.3 306.22-1.15 304.97 0 301.82 0L301.82 0Q298.87 0 297.8-1.38 296.72-2.75 296.72-5.9L296.72-5.9 296.72-18.2Q296.72-20.75 298.1-22.3 299.47-23.85 301.77-23.85L301.77-23.85Q303.67-23.85 304.97-23.3 306.27-22.75 306.92-21.4L306.92-21.4Q310.82-23.95 316.42-23.95L316.42-23.95Q319.97-23.95 321.55-21.15 323.12-18.35 323.12-11.95L323.12-11.95Q323.12-8.8 322.97-6.83 322.82-4.85 322.5-3.43 322.17-2 321.47-1.3 320.77-0.6 319.85-0.3 318.92 0 317.47 0L317.47 0Q314.67 0 313.45-1.05 312.22-2.1 312.22-4.15L312.22-4.15ZM330.12-10.7L330.12-10.7 330.12-16.6Q328.87-16.65 328.12-17.03 327.37-17.4 327.05-18 326.72-18.6 326.72-19.5L326.72-19.5Q326.72-22.35 330.17-22.6L330.17-22.6 330.17-27.25Q330.17-29.15 332.92-30.68 335.67-32.2 338.37-32.2L338.37-32.2Q340.02-32.2 340.52-31.25 341.02-30.3 341.02-28.4L341.02-28.4 341.07-22.65 342.42-22.65Q345.17-22.65 346.2-21.93 347.22-21.2 347.22-19.3L347.22-19.3Q347.22-18.5 346.92-17.95 346.62-17.4 345.95-17.1 345.27-16.8 344.32-16.68 343.37-16.55 341.97-16.55L341.97-16.55 341.07-16.55 341.07-11.05Q341.07-10.25 341.15-9.73 341.22-9.2 341.37-8.9 341.52-8.6 341.8-8.5 342.07-8.4 342.47-8.4L342.47-8.4Q343.07-8.4 343.47-8.83 343.87-9.25 344.1-9.78 344.32-10.3 344.7-10.73 345.07-11.15 345.57-11.15L345.57-11.15Q346.72-11.15 347.35-10.6 347.97-10.05 347.97-9.25L347.97-9.25Q347.97-7.9 347.45-6.35 346.92-4.8 345.92-3.35 344.92-1.9 343.15-0.95 341.37 0 339.17 0L339.17 0Q334.22 0 332.17-2.5 330.12-5 330.12-10.7ZM352.52-30.8L352.52-30.8Q352.52-32.45 353.94-33.52 355.37-34.6 357.97-34.6L357.97-34.6Q363.42-34.6 363.42-30.8L363.42-30.8Q363.42-28.7 362.04-27.85 360.67-27 357.97-27L357.97-27Q355.62-27 354.07-27.9 352.52-28.8 352.52-30.8ZM363.37-18.35L363.37-5.35Q363.37-2.35 362.12-1.18 360.87 0 357.72 0L357.72 0Q354.77 0 353.69-1.38 352.62-2.75 352.62-5.9L352.62-5.9 352.62-18.2Q352.62-20.75 353.99-22.3 355.37-23.85 357.67-23.85L357.67-23.85Q360.37-23.85 361.87-22.68 363.37-21.5 363.37-18.35L363.37-18.35ZM383.32-4.15L383.27-13.45Q383.27-16.25 381.07-16.25L381.07-16.25Q380.02-16.25 379.34-15.38 378.67-14.5 378.57-13.05L378.57-13.05 378.57-5.35Q378.57-2.3 377.32-1.15 376.07 0 372.92 0L372.92 0Q369.97 0 368.89-1.38 367.82-2.75 367.82-5.9L367.82-5.9 367.82-18.2Q367.82-20.75 369.19-22.3 370.57-23.85 372.87-23.85L372.87-23.85Q374.77-23.85 376.07-23.3 377.37-22.75 378.02-21.4L378.02-21.4Q381.92-23.95 387.52-23.95L387.52-23.95Q391.07-23.95 392.64-21.15 394.22-18.35 394.22-11.95L394.22-11.95Q394.22-8.8 394.07-6.83 393.92-4.85 393.59-3.43 393.27-2 392.57-1.3 391.87-0.6 390.94-0.3 390.02 0 388.57 0L388.57 0Q385.77 0 384.54-1.05 383.32-2.1 383.32-4.15L383.32-4.15ZM407.31 0.3L407.31 0.3Q403.36 0.3 400.76-2.93 398.16-6.15 398.16-11.8L398.16-11.8Q398.16-17.5 400.71-20.85 403.26-24.2 407.26-24.2L407.26-24.2Q411.31-24.2 414.76-21.4L414.76-21.4Q416.06-23.85 419.06-23.85L419.06-23.85Q421.76-23.85 423.29-22.65 424.81-21.45 424.81-18.35L424.81-18.35 424.81-9.2Q424.81-4.35 424.19-0.88 423.56 2.6 422.04 5.25 420.51 7.9 417.84 9.2 415.16 10.5 411.26 10.5L411.26 10.5Q408.56 10.5 406.26 9.75 403.96 9 402.61 7.9 401.26 6.8 400.51 5.7 399.76 4.6 399.76 3.8L399.76 3.8Q399.76 2.85 400.31 2.2 400.86 1.55 401.86 1.55L401.86 1.55Q402.46 1.55 404.89 2.85 407.31 4.15 408.81 4.15L408.81 4.15Q413.91 4.15 413.91-1.1L413.91-1.1Q411.01 0.3 407.31 0.3ZM414.11-7.2L414.11-7.2 414.06-16.65Q413.21-18.05 411.91-18.05L411.91-18.05Q411.01-18.05 410.34-17.1 409.66-16.15 409.34-14.75 409.01-13.35 409.01-11.8L409.01-11.8Q409.01-9.45 409.76-7.68 410.51-5.9 411.86-5.9L411.86-5.9Q413.21-5.9 414.11-7.2Z" opacity="1" transform="matrix(1,0,0,1,0,0)" fill="#fb3313" class="wordmark-text-0" data-fill-palette-color="primary" id="text-0"></path></svg></g></svg></g></svg></g></svg></g><g><svg viewBox="0 0 63.8100233810343 58.479538996560315" height="58.479538996560315" width="63.8100233810343"><g><svg xmlns="http://www.w3.org/2000/svg" xmlns:xlink="http://www.w3.org/1999/xlink" version="1.1" x="0" y="0" viewBox="0.005 21.389999999999997 511.99 469.22" enable-background="new 0 0 512 512" xml:space="preserve" height="58.479538996560315" width="63.8100233810343" class="icon-icon-0" data-fill-palette-color="accent" id="icon-0"><g fill="#fb3313" data-fill-palette-color="accent"><path d="M437.34 149.279c5.891 0 10.656-4.773 10.656-10.664s-4.766-10.672-10.656-10.672-10.671 4.781-10.671 10.672S431.449 149.279 437.34 149.279z" fill="#fb3313" data-fill-palette-color="accent"></path><path d="M256 181.278c0 5.891 4.781 10.664 10.672 10.664s10.671-4.773 10.671-10.664-4.78-10.663-10.671-10.663S256 175.388 256 181.278z" fill="#fb3313" data-fill-palette-color="accent"></path><path d="M458.668 213.278c5.891 0 10.672-4.773 10.672-10.664s-4.781-10.672-10.672-10.672-10.672 4.781-10.672 10.672S452.777 213.278 458.668 213.278z" fill="#fb3313" data-fill-palette-color="accent"></path><path d="M373.342 63.944h10.656v10.672c0 5.891 4.78 10.664 10.671 10.664s10.672-4.773 10.672-10.664V63.944h10.656c5.906 0 10.672-4.772 10.672-10.663s-4.766-10.664-10.672-10.664h-10.656V32.062c0-5.898-4.781-10.672-10.672-10.672s-10.671 4.773-10.671 10.672v10.555h-10.656c-5.891 0-10.672 4.773-10.672 10.664S367.451 63.944 373.342 63.944z" fill="#fb3313" data-fill-palette-color="accent"></path><path d="M319.998 159.943c0 5.898 4.781 10.672 10.672 10.672h10.672v10.663c0 5.891 4.766 10.664 10.656 10.664 5.906 0 10.672-4.773 10.672-10.664v-10.663h10.672c5.891 0 10.656-4.773 10.656-10.672 0-5.891-4.766-10.664-10.656-10.664H362.67v-10.555c0-5.891-4.766-10.664-10.672-10.664-5.891 0-10.656 4.773-10.656 10.664v10.555H330.67C324.779 149.279 319.998 154.053 319.998 159.943z" fill="#fb3313" data-fill-palette-color="accent"></path><path d="M511.995 277.277c0-35.344-81.171-63.999-181.325-63.999s-181.34 28.655-181.34 63.999c0 19.327 24.28 36.655 62.655 48.39l-5.328 140.467c0 13.516 57.312 24.476 127.997 24.476 70.702 0 128.014-10.96 128.014-24.476l-5.422-143.037C491.027 311.472 511.995 295.245 511.995 277.277zM440.98 457.368c-4.969 1.836-14.358 4.531-30.905 6.992-21.312 3.172-48.093 4.914-75.421 4.914-27.312 0-54.093-1.742-75.404-4.914-16.562-2.461-25.938-5.156-30.906-6.992l4.781-126.131c28.156 6.352 61.624 10.039 97.545 10.039 39.344 0 75.749-4.422 105.467-11.938L440.98 457.368zM484.09 285.808c-4.938 4.117-14.547 10.344-32.297 16.609-15.375 5.422-33.437 9.711-53.687 12.734-21.327 3.18-44.015 4.789-67.437 4.789-23.437 0-46.124-1.609-67.436-4.789-20.25-3.023-38.312-7.312-53.687-12.734-17.75-6.266-27.359-12.492-32.297-16.609-5.203-4.343-6.578-7.476-6.578-8.53 0-1.047 1.375-4.188 6.578-8.531 4.938-4.117 14.547-10.344 32.297-16.609 15.374-5.422 33.437-9.703 53.687-12.727 21.312-3.188 43.999-4.797 67.436-4.797 23.422 0 46.109 1.609 67.437 4.797 20.25 3.023 38.312 7.305 53.687 12.727 17.75 6.266 27.359 12.492 32.297 16.609 5.203 4.344 6.578 7.484 6.578 8.531C490.668 278.332 489.293 281.465 484.09 285.808z" fill="#fb3313" data-fill-palette-color="accent"></path><path d="M330.67 245.277c-64.795 0-117.341 14.328-117.341 32 0 17.671 52.546 31.999 117.341 31.999 64.796 0 117.326-14.328 117.326-31.999C447.996 259.605 395.466 245.277 330.67 245.277zM398.294 281.668c-19.046 4.046-43.062 6.272-67.624 6.272-24.562 0-48.577-2.227-67.639-6.272-6.719-1.438-12.172-2.945-16.484-4.391 4.312-1.445 9.766-2.953 16.484-4.391 19.062-4.047 43.077-6.273 67.639-6.273 24.562 0 48.578 2.227 67.624 6.273 6.734 1.438 12.172 2.945 16.5 4.391C410.466 278.723 405.028 280.23 398.294 281.668z" fill="#fb3313" data-fill-palette-color="accent"></path><path d="M295.608 51.188L0.005 221.856l31.999 55.421 295.604-170.661L295.608 51.188zM298.468 98.804l-55.421 31.999-10.672-18.476 55.421-32L298.468 98.804zM29.16 229.66l184.747-106.662 10.655 18.477L39.816 248.137 29.16 229.66z" fill="#fb3313" data-fill-palette-color="accent"></path></g></svg></g></svg></g></svg></g><defs></defs></svg><rect width="395.52" height="49.28374294098759" fill="none" stroke="none" visibility="hidden"></rect></g></svg></g></svg>